# xmcd
#
# Track frame offsets:
#	150
#	14962
#	30712
#	44838
#	57925
#	73660
#	87760
#	106585
#	123835
#	138310
#	157085
#	171860
#	191510
#	208872
#	225147
#	241909
#	258446
#	274946
#	289946
#
# Disc length: 4064 seconds
#
# Revision: 2
# Processed by: cddbd v1.5.2PL0 Copyright (c) Steve Scherf et al.
# Submitted via: audiograbber 1.83.01
#
DISCID=150fde13
DTITLE=Diverse - Aprés Ski 2008 [CD2)
DYEAR=2007
DGENRE=Humor
TTITLE0=Jenz und Jenz - Das rote Pferd
TTITLE1=Die Korntaler - Ich geh für Dich durchs Feuer
TTITLE2=Miami Ritmo - Vayamos companeros
TTITLE3=Ellen Kreuz - Er gehört zu mir
TTITLE4=Jo&Die Party Singers - Ski Heil und Beinbruch
TTITLE5=Anna Kaast - Blonde können´s besser
TTITLE6=Christian König - Barbara
TTITLE7=Viola Jahn - Seemann
TTITLE8=Die Korntaler - Rot sind die Rosen 
TTITLE9=Uli Bastian - Wir sind alle über 40
TTITLE10=Jörg Bausch - Dieser Flug
TTITLE11=Sünke - Blaue Nacht am Hafen
TTITLE12=John Wendlow - Sie liebt den DJ
TTITLE13=Miami Ritmo - Que si que no
TTITLE14=Olaf Henning - Cowboy und Indianer
TTITLE15=Christian König - Ladioo
TTITLE16=Uli Bastian - Mendocino
TTITLE17=Miami Ritmo - Die Hände zum Himmel
TTITLE18=Chfristian König - Tanze mit mir in den Morgen
EXTD=
EXTT0=
EXTT1=
EXTT2=
EXTT3=
EXTT4=
EXTT5=
EXTT6=
EXTT7=
EXTT8=
EXTT9=
EXTT10=
EXTT11=
EXTT12=
EXTT13=
EXTT14=
EXTT15=
EXTT16=
EXTT17=
EXTT18=
PLAYORDER=
